<?xml version="1.0" encoding="UTF-8"?>
<svg xmlns="http://www.w3.org/2000/svg" xmlns:xlink="http://www.w3.org/1999/xlink" viewBox="0 0 100 100" width="100px" height="100px">
<g id="surface16312297">
<path style=" stroke:none;fill-rule:nonzero;fill:rgb(33.725491%,100%,96.078432%);fill-opacity:1;" d="M 31.011719 17.988281 C 23.832031 17.988281 18.011719 23.808594 18.011719 30.988281 L 18.011719 69.988281 C 18.011719 77.167969 23.832031 82.988281 31.011719 82.988281 L 70.011719 82.988281 C 77.191406 82.988281 83.011719 77.167969 83.011719 69.988281 L 83.011719 30.988281 C 83.011719 23.808594 77.191406 17.988281 70.011719 17.988281 Z M 31.011719 19.988281 L 70.011719 19.988281 C 76.085938 19.988281 81.011719 24.914062 81.011719 30.988281 L 81.011719 69.988281 C 81.011719 76.0625 76.085938 80.988281 70.011719 80.988281 L 31.011719 80.988281 C 24.9375 80.988281 20.011719 76.0625 20.011719 69.988281 L 20.011719 30.988281 C 20.011719 24.914062 24.9375 19.988281 31.011719 19.988281 Z M 33.847656 22.988281 C 27.863281 22.988281 23.011719 27.839844 23.011719 33.824219 L 23.011719 67.148438 C 23.011719 73.136719 27.863281 77.988281 33.847656 77.988281 L 67.175781 77.988281 C 73.160156 77.988281 78.011719 73.136719 78.011719 67.148438 L 78.011719 48.488281 C 78.011719 48.210938 77.789062 47.988281 77.511719 47.988281 C 77.234375 47.988281 77.011719 48.210938 77.011719 48.488281 L 77.011719 67.148438 C 77.011719 72.582031 72.605469 76.988281 67.175781 76.988281 L 33.851562 76.988281 C 28.417969 76.988281 24.011719 72.582031 24.011719 67.148438 L 24.011719 33.824219 C 24.011719 28.390625 28.414062 23.988281 33.847656 23.988281 L 67.511719 23.988281 C 67.789062 23.988281 68.011719 23.765625 68.011719 23.488281 C 68.011719 23.210938 67.789062 22.988281 67.511719 22.988281 Z M 50.5 28.996094 C 49.964844 28.996094 49.429688 29.167969 48.984375 29.507812 L 29.40625 44.164062 L 29.40625 44.167969 C 29.042969 44.441406 28.933594 44.921875 29.058594 45.296875 C 29.1875 45.667969 29.566406 45.984375 30.019531 45.984375 L 33 45.984375 L 33 66.503906 C 33 67.878906 34.125 69.003906 35.5 69.003906 L 65.5 69.003906 C 66.875 69.003906 68 67.878906 68 66.503906 L 68 45.996094 L 70.976562 45.984375 C 71.4375 45.984375 71.8125 45.667969 71.9375 45.292969 C 72.066406 44.921875 71.957031 44.441406 71.589844 44.164062 L 71.589844 44.160156 L 68 41.476562 L 68 33 L 62 33 L 62 36.984375 L 52.015625 29.507812 C 51.570312 29.167969 51.035156 28.996094 50.5 28.996094 Z M 50.5 29.996094 C 50.820312 29.996094 51.140625 30.097656 51.410156 30.304688 L 63 38.980469 L 63 34 L 67 34 L 67 41.976562 L 70.988281 44.960938 C 71.015625 44.980469 70.996094 44.960938 70.992188 44.972656 C 70.988281 44.988281 71.011719 44.984375 70.976562 44.984375 L 67 45 L 67 66.503906 C 67 67.335938 66.332031 68 65.5 68 L 35.5 68 C 34.664062 68 34 67.335938 34 66.503906 L 34 44.984375 L 30.019531 44.984375 C 29.988281 44.984375 30.011719 44.988281 30.007812 44.972656 C 30.003906 44.960938 29.984375 44.980469 30.011719 44.960938 L 49.589844 30.304688 C 49.859375 30.101562 50.179688 29.996094 50.5 29.996094 Z M 50.496094 32 C 50.167969 32 49.835938 32.105469 49.558594 32.320312 L 36.601562 42.550781 C 36.222656 42.839844 36.003906 43.285156 36.003906 43.761719 L 36.019531 64.472656 C 36.019531 65.3125 36.710938 66 37.554688 66 L 63.460938 66 C 64.300781 66 64.996094 65.3125 64.996094 64.46875 L 64.996094 43.761719 C 64.996094 43.285156 64.773438 42.835938 64.398438 42.550781 L 51.441406 32.320312 L 51.4375 32.320312 C 51.160156 32.105469 50.828125 32 50.5 32 Z M 50.496094 33 C 50.613281 33 50.726562 33.035156 50.824219 33.109375 L 63.789062 43.339844 C 63.921875 43.441406 63.996094 43.59375 63.996094 43.761719 L 63.996094 64.472656 C 63.996094 64.769531 63.765625 65 63.460938 65 L 37.554688 65 C 37.25 65 37.019531 64.769531 37.019531 64.472656 L 37.003906 43.761719 C 37.003906 43.59375 37.078125 43.441406 37.210938 43.339844 L 50.171875 33.109375 C 50.269531 33.035156 50.382812 33 50.5 33 Z M 50.5 36 C 50.167969 36 49.835938 36.105469 49.554688 36.320312 L 39.605469 44.007812 C 39.226562 44.296875 39.003906 44.746094 39.003906 45.226562 L 39.015625 61.464844 C 39.015625 62.3125 39.71875 63 40.5625 63.003906 L 60.453125 63.003906 C 61.296875 63.003906 61.996094 62.3125 61.996094 61.464844 L 61.996094 45.226562 C 61.996094 44.75 61.777344 44.300781 61.398438 44.011719 L 61.394531 44.007812 L 51.445312 36.320312 C 51.167969 36.109375 50.832031 36 50.5 36 Z M 77.511719 36.566406 C 77.234375 36.566406 77.011719 36.789062 77.011719 37.066406 L 77.011719 39.066406 C 77.011719 39.34375 77.234375 39.566406 77.511719 39.566406 C 77.789062 39.566406 78.011719 39.34375 78.011719 39.066406 L 78.011719 37.066406 C 78.011719 36.789062 77.789062 36.566406 77.511719 36.566406 Z M 50.5 37 C 50.617188 37 50.738281 37.039062 50.835938 37.113281 L 60.785156 44.800781 C 60.921875 44.90625 60.996094 45.058594 60.996094 45.222656 L 60.996094 61.464844 C 60.996094 61.765625 60.761719 62 60.449219 62 L 40.5625 62 C 40.253906 62 40.015625 61.765625 40.015625 61.464844 L 40.015625 61.460938 L 40.003906 45.222656 C 40.003906 45.058594 40.082031 44.902344 40.214844 44.800781 L 50.164062 37.113281 C 50.261719 37.039062 50.382812 37 50.5 37 Z M 50.496094 39.976562 C 50.160156 39.976562 49.824219 40.085938 49.542969 40.300781 L 49.539062 40.300781 L 42.613281 45.582031 L 42.609375 45.582031 C 42.230469 45.871094 42.003906 46.324219 42.003906 46.800781 L 42.015625 58.460938 C 42.015625 59.3125 42.726562 60 43.578125 60 L 57.429688 60 C 58.28125 60 58.996094 59.308594 58.996094 58.460938 L 58.996094 46.800781 C 58.996094 46.324219 58.769531 45.871094 58.386719 45.582031 L 51.457031 40.300781 C 51.171875 40.085938 50.835938 39.976562 50.5 39.976562 Z M 77.511719 40.566406 C 77.234375 40.566406 77.011719 40.789062 77.011719 41.066406 L 77.011719 45.066406 C 77.011719 45.34375 77.234375 45.566406 77.511719 45.566406 C 77.789062 45.566406 78.011719 45.34375 78.011719 45.066406 L 78.011719 41.066406 C 78.011719 40.789062 77.789062 40.566406 77.511719 40.566406 Z M 50.496094 40.980469 C 50.621094 40.980469 50.746094 41.015625 50.851562 41.097656 L 50.851562 41.09375 L 57.78125 46.378906 C 57.917969 46.484375 57.992188 46.636719 57.992188 46.800781 L 57.992188 58.457031 C 57.992188 58.757812 57.753906 59 57.429688 59 L 43.578125 59 C 43.253906 59 43.011719 58.757812 43.011719 58.460938 L 43.011719 58.457031 L 43.003906 46.800781 C 43.003906 46.636719 43.078125 46.480469 43.214844 46.378906 L 50.144531 41.09375 L 50.144531 41.097656 C 50.25 41.015625 50.375 40.980469 50.496094 40.980469 Z M 50.492188 44 C 50.152344 44 49.808594 44.105469 49.519531 44.320312 L 45.636719 47.191406 C 45.246094 47.480469 45.007812 47.941406 45.007812 48.429688 L 45.011719 55.441406 C 45.011719 56.308594 45.75 57 46.617188 56.996094 L 54.378906 56.996094 C 55.25 56.996094 55.988281 56.308594 55.988281 55.4375 L 55.988281 48.429688 C 55.988281 47.941406 55.746094 47.484375 55.355469 47.191406 L 51.46875 44.320312 C 51.179688 44.105469 50.835938 44 50.492188 44 Z M 50.492188 45.003906 C 50.628906 45.003906 50.765625 45.042969 50.875 45.125 L 54.757812 47.992188 C 54.90625 48.105469 54.988281 48.265625 54.988281 48.429688 L 54.988281 55.441406 C 54.988281 55.742188 54.730469 55.996094 54.378906 55.996094 L 46.617188 55.996094 C 46.265625 56 46.011719 55.742188 46.011719 55.441406 L 46.007812 48.429688 C 46.007812 48.261719 46.085938 48.101562 46.234375 47.992188 L 50.113281 45.125 C 50.226562 45.042969 50.359375 45.003906 50.492188 45.003906 Z M 50.492188 45.003906 "/>
</g>
</svg>
